<svg xmlns="http://www.w3.org/2000/svg" version="1.1" xmlns:xlink="http://www.w3.org/1999/xlink" width="1000" height="1000"><metadata><rdf:RDF xmlns:rdf="http://www.w3.org/1999/02/22-rdf-syntax-ns#" xmlns:dc="http://purl.org/dc/elements/1.1/"><rdf:Description><dc:creator>RealFaviconGenerator</dc:creator><dc:source>https://realfavicongenerator.net</dc:source></rdf:Description></rdf:RDF></metadata><style>
    #light-icon {
      display: inline;
    }
    #dark-icon {
      display: none;
    }

    @media (prefers-color-scheme: dark) {
      #light-icon {
        display: none;
      }
      #dark-icon {
        display: inline;
      }
    }
  </style><g id="light-icon"><svg xmlns="http://www.w3.org/2000/svg" version="1.1" xmlns:xlink="http://www.w3.org/1999/xlink" width="1000" height="1000"><g><g transform="matrix(1.953125,0,0,1.953125,0,0)"><svg xmlns="http://www.w3.org/2000/svg" width="512" height="512" viewBox="0 0 512 512" fill="none"><path d="M140.973 448.781C124.451 439.524 114.81 423.434 112.049 400.51C109.394 377.407 113.203 349.613 123.475 317.126C133.852 284.461 150.488 248.889 173.382 210.409C196.382 171.752 219.863 139.896 243.825 114.842C267.894 89.6102 290.901 72.3341 312.845 63.0139C334.79 53.6938 354.024 53.6621 370.546 62.9188C387.435 72.3812 397.207 88.6635 399.862 111.766C402.7 134.971 398.877 162.995 388.393 195.838C378.199 228.606 361.602 264.319 338.603 302.976C315.709 341.456 292.189 373.171 268.043 398.122C244.186 422.998 221.194 440.044 199.065 449.262C177.226 458.404 157.862 458.243 140.973 448.781ZM144.153 443.437C151.68 447.654 160.585 446.467 170.87 439.878C181.444 433.213 193.234 422.242 206.24 406.964C219.43 391.788 233.451 373.159 248.302 351.077C263.154 328.994 278.476 304.681 294.268 278.138C310.061 251.594 324.098 226.561 336.379 203.038C348.767 179.338 358.435 158.151 365.383 139.479C372.621 120.731 376.57 105.248 377.231 93.0296C378.181 80.7356 374.893 72.4801 367.366 68.2632C360.207 64.2519 351.287 65.6677 340.607 72.5106C330.216 79.2781 318.465 90.39 305.353 105.846C292.53 121.227 278.64 140.048 263.682 162.309C248.831 184.391 233.508 208.705 217.716 235.248C201.924 261.792 187.887 286.825 175.605 310.347C163.324 333.87 153.525 354.865 146.21 373.331C139.078 391.9 135.09 407.243 134.246 419.359C133.691 431.399 136.993 439.425 144.153 443.437Z" fill="black"></path><path d="M111.061 133.701C101.303 133.701 93.0199 130.32 86.2119 123.559C79.404 116.797 76 108.727 76 99.3487C76 89.752 79.404 81.682 86.2119 75.1387C93.0199 68.5955 101.303 65.3239 111.061 65.3239C120.592 65.3239 128.875 68.5955 135.91 75.1387C142.945 81.682 146.462 89.752 146.462 99.3487C146.462 108.727 142.945 116.797 135.91 123.559C128.875 130.32 120.592 133.701 111.061 133.701Z" fill="black"></path><path d="M400.599 446.28C390.841 446.28 382.558 442.9 375.75 436.138C368.942 429.377 365.538 421.307 365.538 411.928C365.538 402.332 368.942 394.262 375.75 387.718C382.558 381.175 390.841 377.904 400.599 377.904C410.13 377.904 418.413 381.175 425.448 387.718C432.483 394.262 436 402.332 436 411.928C436 421.307 432.483 429.377 425.448 436.138C418.413 442.9 410.13 446.28 400.599 446.28Z" fill="black"></path></svg></g></g></svg></g><g id="dark-icon"><svg xmlns="http://www.w3.org/2000/svg" version="1.1" xmlns:xlink="http://www.w3.org/1999/xlink" width="1000" height="1000"><g><g transform="matrix(1.953125,0,0,1.953125,0,0)"><svg xmlns="http://www.w3.org/2000/svg" width="512" height="512" viewBox="0 0 512 512" fill="none"><path d="M140.973 448.781C124.451 439.524 114.81 423.434 112.049 400.51C109.394 377.407 113.203 349.613 123.475 317.126C133.852 284.461 150.488 248.889 173.382 210.409C196.382 171.752 219.863 139.896 243.825 114.842C267.894 89.6102 290.901 72.3341 312.846 63.0139C334.79 53.6938 354.024 53.6621 370.546 62.9188C387.435 72.3812 397.207 88.6635 399.862 111.766C402.7 134.971 398.877 162.995 388.394 195.838C378.199 228.606 361.602 264.319 338.603 302.976C315.709 341.456 292.189 373.171 268.043 398.122C244.186 422.998 221.194 440.044 199.065 449.262C177.226 458.404 157.862 458.243 140.973 448.781ZM144.153 443.437C151.68 447.654 160.585 446.467 170.87 439.878C181.444 433.213 193.234 422.242 206.24 406.964C219.43 391.788 233.451 373.159 248.302 351.077C263.154 328.994 278.476 304.681 294.268 278.138C310.061 251.594 324.098 226.561 336.379 203.038C348.767 179.338 358.435 158.151 365.383 139.479C372.621 120.731 376.57 105.248 377.231 93.0296C378.181 80.7356 374.893 72.4801 367.366 68.2632C360.207 64.2519 351.287 65.6677 340.607 72.5106C330.216 79.2781 318.465 90.39 305.353 105.846C292.53 121.227 278.64 140.048 263.682 162.309C248.831 184.391 233.509 208.705 217.716 235.248C201.924 261.792 187.887 286.825 175.605 310.347C163.324 333.87 153.525 354.865 146.21 373.331C139.078 391.9 135.09 407.243 134.246 419.359C133.691 431.399 136.993 439.425 144.153 443.437Z" fill="white"></path><path d="M111.061 133.701C101.303 133.701 93.0199 130.32 86.2119 123.559C79.404 116.797 76 108.727 76 99.3487C76 89.752 79.404 81.682 86.2119 75.1387C93.0199 68.5955 101.303 65.3239 111.061 65.3239C120.592 65.3239 128.875 68.5955 135.91 75.1387C142.945 81.682 146.462 89.752 146.462 99.3487C146.462 108.727 142.945 116.797 135.91 123.559C128.875 130.32 120.592 133.701 111.061 133.701Z" fill="white"></path><path d="M400.599 446.28C390.841 446.28 382.557 442.9 375.75 436.138C368.942 429.377 365.538 421.307 365.538 411.928C365.538 402.332 368.942 394.262 375.75 387.718C382.557 381.175 390.841 377.904 400.599 377.904C410.13 377.904 418.413 381.175 425.448 387.718C432.483 394.262 436 402.332 436 411.928C436 421.307 432.483 429.377 425.448 436.138C418.413 442.9 410.13 446.28 400.599 446.28Z" fill="white"></path></svg></g></g></svg></g></svg>